<mxfile host="app.diagrams.net" modified="2022-08-20T19:50:11.749Z" agent="5.0 (Macintosh; Intel Mac OS X 10_15_7) AppleWebKit/605.1.15 (KHTML, like Gecko) Version/15.6 Safari/605.1.15" etag="W2zHAf4J3Kl5TR5OVR4Q" version="20.2.5" type="github">
  <diagram name="ABOV BLE" id="7e0a89b8-554c-2b80-1dc8-d5c74ca68de4">
    <mxGraphModel dx="1112" dy="1502" grid="1" gridSize="10" guides="1" tooltips="1" connect="1" arrows="1" fold="1" page="1" pageScale="1" pageWidth="1100" pageHeight="850" background="none" math="0" shadow="0">
      <root>
        <mxCell id="0" />
        <mxCell id="1" parent="0" />
        <mxCell id="hUwfkyst4RxsE2nEBpa8-10" style="edgeStyle=orthogonalEdgeStyle;rounded=0;orthogonalLoop=1;jettySize=auto;html=1;exitX=1;exitY=0.25;exitDx=0;exitDy=0;entryX=0;entryY=0.5;entryDx=0;entryDy=0;" edge="1" parent="1" source="hUwfkyst4RxsE2nEBpa8-1" target="hUwfkyst4RxsE2nEBpa8-5">
          <mxGeometry relative="1" as="geometry" />
        </mxCell>
        <mxCell id="hUwfkyst4RxsE2nEBpa8-1" value="" style="rounded=0;whiteSpace=wrap;html=1;" vertex="1" parent="1">
          <mxGeometry x="540" y="500" width="100" height="80" as="geometry" />
        </mxCell>
        <mxCell id="hUwfkyst4RxsE2nEBpa8-2" value="MCU" style="rounded=0;whiteSpace=wrap;html=1;fontStyle=1;verticalAlign=middle;" vertex="1" parent="1">
          <mxGeometry x="830" y="450" width="110" height="180" as="geometry" />
        </mxCell>
        <mxCell id="hUwfkyst4RxsE2nEBpa8-9" style="edgeStyle=orthogonalEdgeStyle;rounded=0;orthogonalLoop=1;jettySize=auto;html=1;exitX=0;exitY=0.5;exitDx=0;exitDy=0;entryX=0.84;entryY=-0.037;entryDx=0;entryDy=0;entryPerimeter=0;" edge="1" parent="1" source="hUwfkyst4RxsE2nEBpa8-4" target="hUwfkyst4RxsE2nEBpa8-1">
          <mxGeometry relative="1" as="geometry" />
        </mxCell>
        <mxCell id="hUwfkyst4RxsE2nEBpa8-4" value="" style="triangle;whiteSpace=wrap;html=1;" vertex="1" parent="1">
          <mxGeometry x="830" y="470" width="20" height="20" as="geometry" />
        </mxCell>
        <mxCell id="hUwfkyst4RxsE2nEBpa8-5" value="" style="triangle;whiteSpace=wrap;html=1;" vertex="1" parent="1">
          <mxGeometry x="830" y="510" width="20" height="20" as="geometry" />
        </mxCell>
        <mxCell id="hUwfkyst4RxsE2nEBpa8-7" value="" style="triangle;whiteSpace=wrap;html=1;rotation=-180;" vertex="1" parent="1">
          <mxGeometry x="920" y="490" width="20" height="20" as="geometry" />
        </mxCell>
      </root>
    </mxGraphModel>
  </diagram>
</mxfile>
